<mxfile host="Electron" modified="2023-10-27T12:35:45.986Z" agent="Mozilla/5.0 (Windows NT 10.0; Win64; x64) AppleWebKit/537.36 (KHTML, like Gecko) draw.io/21.7.5 Chrome/114.0.5735.289 Electron/25.8.1 Safari/537.36" etag="rzLkh99i90lvDW-HYEE4" version="21.7.5" type="device">
  <diagram id="C5RBs43oDa-KdzZeNtuy" name="Page-1">
    <mxGraphModel dx="1963" dy="2175" grid="1" gridSize="10" guides="1" tooltips="1" connect="1" arrows="1" fold="1" page="1" pageScale="1" pageWidth="827" pageHeight="1169" math="0" shadow="0">
      <root>
        <mxCell id="WIyWlLk6GJQsqaUBKTNV-0" />
        <mxCell id="WIyWlLk6GJQsqaUBKTNV-1" parent="WIyWlLk6GJQsqaUBKTNV-0" />
        <mxCell id="A2L044aXmqwqJp9lYkbu-0" value="LoginActivity.java" style="swimlane;whiteSpace=wrap;html=1;" vertex="1" parent="WIyWlLk6GJQsqaUBKTNV-1">
          <mxGeometry x="110" y="40" width="690" height="440" as="geometry" />
        </mxCell>
        <mxCell id="A2L044aXmqwqJp9lYkbu-2" value="Username" style="shape=parallelogram;perimeter=parallelogramPerimeter;whiteSpace=wrap;html=1;fixedSize=1;" vertex="1" parent="A2L044aXmqwqJp9lYkbu-0">
          <mxGeometry x="20" y="270" width="120" height="60" as="geometry" />
        </mxCell>
        <mxCell id="A2L044aXmqwqJp9lYkbu-1" value="Password" style="shape=parallelogram;perimeter=parallelogramPerimeter;whiteSpace=wrap;html=1;fixedSize=1;" vertex="1" parent="A2L044aXmqwqJp9lYkbu-0">
          <mxGeometry x="270" y="270" width="120" height="60" as="geometry" />
        </mxCell>
        <mxCell id="A2L044aXmqwqJp9lYkbu-3" value="LOGIN" style="whiteSpace=wrap;html=1;aspect=fixed;" vertex="1" parent="A2L044aXmqwqJp9lYkbu-0">
          <mxGeometry x="560" y="260" width="80" height="80" as="geometry" />
        </mxCell>
        <mxCell id="A2L044aXmqwqJp9lYkbu-8" style="edgeStyle=orthogonalEdgeStyle;rounded=0;orthogonalLoop=1;jettySize=auto;html=1;entryX=0.631;entryY=0.022;entryDx=0;entryDy=0;entryPerimeter=0;" edge="1" parent="A2L044aXmqwqJp9lYkbu-0" source="A2L044aXmqwqJp9lYkbu-6" target="A2L044aXmqwqJp9lYkbu-1">
          <mxGeometry relative="1" as="geometry" />
        </mxCell>
        <mxCell id="A2L044aXmqwqJp9lYkbu-9" style="edgeStyle=orthogonalEdgeStyle;rounded=0;orthogonalLoop=1;jettySize=auto;html=1;entryX=0.5;entryY=0;entryDx=0;entryDy=0;" edge="1" parent="A2L044aXmqwqJp9lYkbu-0" source="A2L044aXmqwqJp9lYkbu-6" target="A2L044aXmqwqJp9lYkbu-3">
          <mxGeometry relative="1" as="geometry" />
        </mxCell>
        <mxCell id="A2L044aXmqwqJp9lYkbu-10" style="edgeStyle=orthogonalEdgeStyle;rounded=0;orthogonalLoop=1;jettySize=auto;html=1;entryX=0.567;entryY=-0.052;entryDx=0;entryDy=0;entryPerimeter=0;" edge="1" parent="A2L044aXmqwqJp9lYkbu-0" source="A2L044aXmqwqJp9lYkbu-6" target="A2L044aXmqwqJp9lYkbu-2">
          <mxGeometry relative="1" as="geometry" />
        </mxCell>
        <mxCell id="A2L044aXmqwqJp9lYkbu-6" value="Java components" style="rounded=0;whiteSpace=wrap;html=1;" vertex="1" parent="A2L044aXmqwqJp9lYkbu-0">
          <mxGeometry x="285" y="100" width="120" height="60" as="geometry" />
        </mxCell>
        <mxCell id="A2L044aXmqwqJp9lYkbu-4" value="Java variable" style="shape=parallelogram;perimeter=parallelogramPerimeter;whiteSpace=wrap;html=1;fixedSize=1;" vertex="1" parent="WIyWlLk6GJQsqaUBKTNV-1">
          <mxGeometry x="110" y="-540" width="120" height="60" as="geometry" />
        </mxCell>
        <mxCell id="A2L044aXmqwqJp9lYkbu-5" value="Button" style="whiteSpace=wrap;html=1;aspect=fixed;" vertex="1" parent="WIyWlLk6GJQsqaUBKTNV-1">
          <mxGeometry x="120" y="-460" width="80" height="80" as="geometry" />
        </mxCell>
        <mxCell id="A2L044aXmqwqJp9lYkbu-12" value="ContactListActivity.java" style="swimlane;whiteSpace=wrap;html=1;" vertex="1" parent="WIyWlLk6GJQsqaUBKTNV-1">
          <mxGeometry x="1000" y="40" width="720" height="440" as="geometry" />
        </mxCell>
        <mxCell id="A2L044aXmqwqJp9lYkbu-14" value="Listview" style="shape=parallelogram;perimeter=parallelogramPerimeter;whiteSpace=wrap;html=1;fixedSize=1;" vertex="1" parent="A2L044aXmqwqJp9lYkbu-12">
          <mxGeometry x="270" y="270" width="120" height="60" as="geometry" />
        </mxCell>
        <mxCell id="A2L044aXmqwqJp9lYkbu-17" style="edgeStyle=orthogonalEdgeStyle;rounded=0;orthogonalLoop=1;jettySize=auto;html=1;entryX=0.631;entryY=0.022;entryDx=0;entryDy=0;entryPerimeter=0;" edge="1" parent="A2L044aXmqwqJp9lYkbu-12" source="A2L044aXmqwqJp9lYkbu-20" target="A2L044aXmqwqJp9lYkbu-14">
          <mxGeometry relative="1" as="geometry" />
        </mxCell>
        <mxCell id="A2L044aXmqwqJp9lYkbu-47" style="edgeStyle=orthogonalEdgeStyle;rounded=0;orthogonalLoop=1;jettySize=auto;html=1;" edge="1" parent="A2L044aXmqwqJp9lYkbu-12" source="A2L044aXmqwqJp9lYkbu-20">
          <mxGeometry relative="1" as="geometry">
            <mxPoint x="590" y="240" as="targetPoint" />
          </mxGeometry>
        </mxCell>
        <mxCell id="A2L044aXmqwqJp9lYkbu-48" style="edgeStyle=orthogonalEdgeStyle;rounded=0;orthogonalLoop=1;jettySize=auto;html=1;" edge="1" parent="A2L044aXmqwqJp9lYkbu-12" source="A2L044aXmqwqJp9lYkbu-20">
          <mxGeometry relative="1" as="geometry">
            <mxPoint x="110" y="250" as="targetPoint" />
          </mxGeometry>
        </mxCell>
        <mxCell id="A2L044aXmqwqJp9lYkbu-20" value="Java components" style="rounded=0;whiteSpace=wrap;html=1;" vertex="1" parent="A2L044aXmqwqJp9lYkbu-12">
          <mxGeometry x="285" y="100" width="120" height="60" as="geometry" />
        </mxCell>
        <mxCell id="A2L044aXmqwqJp9lYkbu-23" value="LoginActivity.xml" style="swimlane;horizontal=0;whiteSpace=wrap;html=1;" vertex="1" parent="WIyWlLk6GJQsqaUBKTNV-1">
          <mxGeometry x="120" y="520" width="690" height="330" as="geometry" />
        </mxCell>
        <mxCell id="A2L044aXmqwqJp9lYkbu-25" value="Password" style="shape=parallelogram;perimeter=parallelogramPerimeter;whiteSpace=wrap;html=1;fixedSize=1;" vertex="1" parent="A2L044aXmqwqJp9lYkbu-23">
          <mxGeometry x="285" y="160" width="120" height="60" as="geometry" />
        </mxCell>
        <mxCell id="A2L044aXmqwqJp9lYkbu-27" value="class Edittext" style="text;html=1;align=center;verticalAlign=middle;resizable=0;points=[];autosize=1;strokeColor=none;fillColor=none;" vertex="1" parent="A2L044aXmqwqJp9lYkbu-23">
          <mxGeometry x="80" y="210" width="90" height="30" as="geometry" />
        </mxCell>
        <mxCell id="A2L044aXmqwqJp9lYkbu-28" value="class Edittext" style="text;html=1;align=center;verticalAlign=middle;resizable=0;points=[];autosize=1;strokeColor=none;fillColor=none;" vertex="1" parent="A2L044aXmqwqJp9lYkbu-23">
          <mxGeometry x="294" y="220" width="90" height="30" as="geometry" />
        </mxCell>
        <mxCell id="A2L044aXmqwqJp9lYkbu-29" value="LOGIN" style="whiteSpace=wrap;html=1;aspect=fixed;" vertex="1" parent="A2L044aXmqwqJp9lYkbu-23">
          <mxGeometry x="540" y="150" width="80" height="80" as="geometry" />
        </mxCell>
        <mxCell id="A2L044aXmqwqJp9lYkbu-30" value="class Button" style="text;html=1;align=center;verticalAlign=middle;resizable=0;points=[];autosize=1;strokeColor=none;fillColor=none;" vertex="1" parent="A2L044aXmqwqJp9lYkbu-23">
          <mxGeometry x="535" y="230" width="90" height="30" as="geometry" />
        </mxCell>
        <mxCell id="A2L044aXmqwqJp9lYkbu-33" style="edgeStyle=orthogonalEdgeStyle;rounded=0;orthogonalLoop=1;jettySize=auto;html=1;entryX=0.579;entryY=-0.011;entryDx=0;entryDy=0;entryPerimeter=0;" edge="1" parent="A2L044aXmqwqJp9lYkbu-23" source="A2L044aXmqwqJp9lYkbu-31" target="A2L044aXmqwqJp9lYkbu-25">
          <mxGeometry relative="1" as="geometry" />
        </mxCell>
        <mxCell id="A2L044aXmqwqJp9lYkbu-36" style="edgeStyle=orthogonalEdgeStyle;rounded=0;orthogonalLoop=1;jettySize=auto;html=1;entryX=0.5;entryY=0;entryDx=0;entryDy=0;" edge="1" parent="A2L044aXmqwqJp9lYkbu-23" source="A2L044aXmqwqJp9lYkbu-31" target="A2L044aXmqwqJp9lYkbu-29">
          <mxGeometry relative="1" as="geometry" />
        </mxCell>
        <mxCell id="A2L044aXmqwqJp9lYkbu-31" value="Layout Components" style="rounded=0;whiteSpace=wrap;html=1;" vertex="1" parent="A2L044aXmqwqJp9lYkbu-23">
          <mxGeometry x="294" y="45" width="120" height="60" as="geometry" />
        </mxCell>
        <mxCell id="A2L044aXmqwqJp9lYkbu-37" style="edgeStyle=orthogonalEdgeStyle;rounded=0;orthogonalLoop=1;jettySize=auto;html=1;entryX=0.5;entryY=1;entryDx=0;entryDy=0;" edge="1" parent="WIyWlLk6GJQsqaUBKTNV-1" source="A2L044aXmqwqJp9lYkbu-24" target="A2L044aXmqwqJp9lYkbu-2">
          <mxGeometry relative="1" as="geometry">
            <Array as="points">
              <mxPoint x="190" y="650" />
            </Array>
          </mxGeometry>
        </mxCell>
        <mxCell id="A2L044aXmqwqJp9lYkbu-24" value="Username" style="shape=parallelogram;perimeter=parallelogramPerimeter;whiteSpace=wrap;html=1;fixedSize=1;" vertex="1" parent="WIyWlLk6GJQsqaUBKTNV-1">
          <mxGeometry x="190" y="670" width="120" height="60" as="geometry" />
        </mxCell>
        <mxCell id="A2L044aXmqwqJp9lYkbu-35" style="edgeStyle=orthogonalEdgeStyle;rounded=0;orthogonalLoop=1;jettySize=auto;html=1;" edge="1" parent="WIyWlLk6GJQsqaUBKTNV-1" source="A2L044aXmqwqJp9lYkbu-31" target="A2L044aXmqwqJp9lYkbu-24">
          <mxGeometry relative="1" as="geometry" />
        </mxCell>
        <mxCell id="A2L044aXmqwqJp9lYkbu-38" style="edgeStyle=orthogonalEdgeStyle;rounded=0;orthogonalLoop=1;jettySize=auto;html=1;entryX=1;entryY=0.75;entryDx=0;entryDy=0;" edge="1" parent="WIyWlLk6GJQsqaUBKTNV-1" source="A2L044aXmqwqJp9lYkbu-25" target="A2L044aXmqwqJp9lYkbu-1">
          <mxGeometry relative="1" as="geometry">
            <Array as="points">
              <mxPoint x="610" y="710" />
              <mxPoint x="610" y="352" />
            </Array>
          </mxGeometry>
        </mxCell>
        <mxCell id="A2L044aXmqwqJp9lYkbu-39" style="edgeStyle=orthogonalEdgeStyle;rounded=0;orthogonalLoop=1;jettySize=auto;html=1;entryX=0.5;entryY=1;entryDx=0;entryDy=0;" edge="1" parent="WIyWlLk6GJQsqaUBKTNV-1" source="A2L044aXmqwqJp9lYkbu-29" target="A2L044aXmqwqJp9lYkbu-3">
          <mxGeometry relative="1" as="geometry">
            <Array as="points">
              <mxPoint x="790" y="710" />
              <mxPoint x="790" y="380" />
            </Array>
          </mxGeometry>
        </mxCell>
        <mxCell id="A2L044aXmqwqJp9lYkbu-40" value="Horizontal Container" style="swimlane;horizontal=0;whiteSpace=wrap;html=1;" vertex="1" parent="WIyWlLk6GJQsqaUBKTNV-1">
          <mxGeometry x="1000" y="560" width="720" height="360" as="geometry" />
        </mxCell>
        <mxCell id="A2L044aXmqwqJp9lYkbu-43" value="Views" style="shape=parallelogram;perimeter=parallelogramPerimeter;whiteSpace=wrap;html=1;fixedSize=1;" vertex="1" parent="A2L044aXmqwqJp9lYkbu-40">
          <mxGeometry x="290" y="220" width="120" height="60" as="geometry" />
        </mxCell>
        <mxCell id="A2L044aXmqwqJp9lYkbu-44" style="edgeStyle=orthogonalEdgeStyle;rounded=0;orthogonalLoop=1;jettySize=auto;html=1;entryX=0.631;entryY=0.022;entryDx=0;entryDy=0;entryPerimeter=0;" edge="1" parent="A2L044aXmqwqJp9lYkbu-40" source="A2L044aXmqwqJp9lYkbu-45" target="A2L044aXmqwqJp9lYkbu-43">
          <mxGeometry relative="1" as="geometry" />
        </mxCell>
        <mxCell id="A2L044aXmqwqJp9lYkbu-45" value="Layout elements" style="rounded=0;whiteSpace=wrap;html=1;" vertex="1" parent="A2L044aXmqwqJp9lYkbu-40">
          <mxGeometry x="305" y="50" width="120" height="60" as="geometry" />
        </mxCell>
        <mxCell id="A2L044aXmqwqJp9lYkbu-46" value="Listview" style="text;html=1;align=center;verticalAlign=middle;resizable=0;points=[];autosize=1;strokeColor=none;fillColor=none;" vertex="1" parent="A2L044aXmqwqJp9lYkbu-40">
          <mxGeometry x="305" y="288" width="70" height="30" as="geometry" />
        </mxCell>
        <mxCell id="A2L044aXmqwqJp9lYkbu-42" style="edgeStyle=orthogonalEdgeStyle;rounded=0;orthogonalLoop=1;jettySize=auto;html=1;entryX=0.5;entryY=0;entryDx=0;entryDy=0;" edge="1" parent="WIyWlLk6GJQsqaUBKTNV-1" source="A2L044aXmqwqJp9lYkbu-3" target="A2L044aXmqwqJp9lYkbu-12">
          <mxGeometry relative="1" as="geometry" />
        </mxCell>
        <mxCell id="A2L044aXmqwqJp9lYkbu-49" value="ContactListActivity.java" style="swimlane;whiteSpace=wrap;html=1;" vertex="1" parent="WIyWlLk6GJQsqaUBKTNV-1">
          <mxGeometry x="1880" y="40" width="720" height="440" as="geometry" />
        </mxCell>
        <mxCell id="A2L044aXmqwqJp9lYkbu-50" value="Listview" style="shape=parallelogram;perimeter=parallelogramPerimeter;whiteSpace=wrap;html=1;fixedSize=1;" vertex="1" parent="A2L044aXmqwqJp9lYkbu-49">
          <mxGeometry x="270" y="270" width="120" height="60" as="geometry" />
        </mxCell>
        <mxCell id="A2L044aXmqwqJp9lYkbu-51" style="edgeStyle=orthogonalEdgeStyle;rounded=0;orthogonalLoop=1;jettySize=auto;html=1;entryX=0.631;entryY=0.022;entryDx=0;entryDy=0;entryPerimeter=0;" edge="1" parent="A2L044aXmqwqJp9lYkbu-49" source="A2L044aXmqwqJp9lYkbu-54" target="A2L044aXmqwqJp9lYkbu-50">
          <mxGeometry relative="1" as="geometry" />
        </mxCell>
        <mxCell id="A2L044aXmqwqJp9lYkbu-52" style="edgeStyle=orthogonalEdgeStyle;rounded=0;orthogonalLoop=1;jettySize=auto;html=1;" edge="1" parent="A2L044aXmqwqJp9lYkbu-49" source="A2L044aXmqwqJp9lYkbu-54">
          <mxGeometry relative="1" as="geometry">
            <mxPoint x="590" y="240" as="targetPoint" />
          </mxGeometry>
        </mxCell>
        <mxCell id="A2L044aXmqwqJp9lYkbu-53" style="edgeStyle=orthogonalEdgeStyle;rounded=0;orthogonalLoop=1;jettySize=auto;html=1;" edge="1" parent="A2L044aXmqwqJp9lYkbu-49" source="A2L044aXmqwqJp9lYkbu-54">
          <mxGeometry relative="1" as="geometry">
            <mxPoint x="110" y="250" as="targetPoint" />
          </mxGeometry>
        </mxCell>
        <mxCell id="A2L044aXmqwqJp9lYkbu-54" value="Java components" style="rounded=0;whiteSpace=wrap;html=1;" vertex="1" parent="A2L044aXmqwqJp9lYkbu-49">
          <mxGeometry x="285" y="100" width="120" height="60" as="geometry" />
        </mxCell>
        <mxCell id="A2L044aXmqwqJp9lYkbu-84" value="Drawable icon" style="shape=parallelogram;perimeter=parallelogramPerimeter;whiteSpace=wrap;html=1;fixedSize=1;" vertex="1" parent="A2L044aXmqwqJp9lYkbu-49">
          <mxGeometry x="530" y="240" width="120" height="60" as="geometry" />
        </mxCell>
        <mxCell id="A2L044aXmqwqJp9lYkbu-55" value="NewUserActivity" style="swimlane;whiteSpace=wrap;html=1;" vertex="1" parent="WIyWlLk6GJQsqaUBKTNV-1">
          <mxGeometry x="2760" y="40" width="720" height="440" as="geometry" />
        </mxCell>
        <mxCell id="A2L044aXmqwqJp9lYkbu-56" value="Date of Birth" style="shape=parallelogram;perimeter=parallelogramPerimeter;whiteSpace=wrap;html=1;fixedSize=1;" vertex="1" parent="A2L044aXmqwqJp9lYkbu-55">
          <mxGeometry x="510" y="240" width="120" height="60" as="geometry" />
        </mxCell>
        <mxCell id="A2L044aXmqwqJp9lYkbu-65" style="edgeStyle=orthogonalEdgeStyle;rounded=0;orthogonalLoop=1;jettySize=auto;html=1;entryX=0.583;entryY=0;entryDx=0;entryDy=0;entryPerimeter=0;" edge="1" parent="A2L044aXmqwqJp9lYkbu-55" source="A2L044aXmqwqJp9lYkbu-60" target="A2L044aXmqwqJp9lYkbu-64">
          <mxGeometry relative="1" as="geometry" />
        </mxCell>
        <mxCell id="A2L044aXmqwqJp9lYkbu-66" style="edgeStyle=orthogonalEdgeStyle;rounded=0;orthogonalLoop=1;jettySize=auto;html=1;entryX=0.5;entryY=0;entryDx=0;entryDy=0;" edge="1" parent="A2L044aXmqwqJp9lYkbu-55" source="A2L044aXmqwqJp9lYkbu-60" target="A2L044aXmqwqJp9lYkbu-62">
          <mxGeometry relative="1" as="geometry" />
        </mxCell>
        <mxCell id="A2L044aXmqwqJp9lYkbu-67" style="edgeStyle=orthogonalEdgeStyle;rounded=0;orthogonalLoop=1;jettySize=auto;html=1;entryX=0.557;entryY=-0.048;entryDx=0;entryDy=0;entryPerimeter=0;" edge="1" parent="A2L044aXmqwqJp9lYkbu-55" source="A2L044aXmqwqJp9lYkbu-60" target="A2L044aXmqwqJp9lYkbu-61">
          <mxGeometry relative="1" as="geometry" />
        </mxCell>
        <mxCell id="A2L044aXmqwqJp9lYkbu-68" style="edgeStyle=orthogonalEdgeStyle;rounded=0;orthogonalLoop=1;jettySize=auto;html=1;" edge="1" parent="A2L044aXmqwqJp9lYkbu-55" source="A2L044aXmqwqJp9lYkbu-60" target="A2L044aXmqwqJp9lYkbu-63">
          <mxGeometry relative="1" as="geometry" />
        </mxCell>
        <mxCell id="A2L044aXmqwqJp9lYkbu-69" style="edgeStyle=orthogonalEdgeStyle;rounded=0;orthogonalLoop=1;jettySize=auto;html=1;entryX=0.5;entryY=0;entryDx=0;entryDy=0;" edge="1" parent="A2L044aXmqwqJp9lYkbu-55" source="A2L044aXmqwqJp9lYkbu-60" target="A2L044aXmqwqJp9lYkbu-56">
          <mxGeometry relative="1" as="geometry" />
        </mxCell>
        <mxCell id="A2L044aXmqwqJp9lYkbu-86" style="edgeStyle=orthogonalEdgeStyle;rounded=0;orthogonalLoop=1;jettySize=auto;html=1;" edge="1" parent="A2L044aXmqwqJp9lYkbu-55" source="A2L044aXmqwqJp9lYkbu-60">
          <mxGeometry relative="1" as="geometry">
            <mxPoint x="660" y="360" as="targetPoint" />
          </mxGeometry>
        </mxCell>
        <mxCell id="A2L044aXmqwqJp9lYkbu-60" value="Java components" style="rounded=0;whiteSpace=wrap;html=1;" vertex="1" parent="A2L044aXmqwqJp9lYkbu-55">
          <mxGeometry x="285" y="100" width="120" height="60" as="geometry" />
        </mxCell>
        <mxCell id="A2L044aXmqwqJp9lYkbu-64" value="Firstname" style="shape=parallelogram;perimeter=parallelogramPerimeter;whiteSpace=wrap;html=1;fixedSize=1;" vertex="1" parent="A2L044aXmqwqJp9lYkbu-55">
          <mxGeometry x="40" y="240" width="120" height="60" as="geometry" />
        </mxCell>
        <mxCell id="A2L044aXmqwqJp9lYkbu-63" value="Lastname" style="shape=parallelogram;perimeter=parallelogramPerimeter;whiteSpace=wrap;html=1;fixedSize=1;" vertex="1" parent="A2L044aXmqwqJp9lYkbu-55">
          <mxGeometry x="135" y="360" width="120" height="60" as="geometry" />
        </mxCell>
        <mxCell id="A2L044aXmqwqJp9lYkbu-62" value="Mobile Number" style="shape=parallelogram;perimeter=parallelogramPerimeter;whiteSpace=wrap;html=1;fixedSize=1;" vertex="1" parent="A2L044aXmqwqJp9lYkbu-55">
          <mxGeometry x="285" y="240" width="120" height="60" as="geometry" />
        </mxCell>
        <mxCell id="A2L044aXmqwqJp9lYkbu-61" value="Email Address" style="shape=parallelogram;perimeter=parallelogramPerimeter;whiteSpace=wrap;html=1;fixedSize=1;" vertex="1" parent="A2L044aXmqwqJp9lYkbu-55">
          <mxGeometry x="410" y="360" width="120" height="60" as="geometry" />
        </mxCell>
        <mxCell id="A2L044aXmqwqJp9lYkbu-87" value="Save" style="shape=parallelogram;perimeter=parallelogramPerimeter;whiteSpace=wrap;html=1;fixedSize=1;" vertex="1" parent="A2L044aXmqwqJp9lYkbu-55">
          <mxGeometry x="580" y="360" width="120" height="60" as="geometry" />
        </mxCell>
        <mxCell id="A2L044aXmqwqJp9lYkbu-70" value="NewUserAvtivity.xml" style="swimlane;horizontal=0;whiteSpace=wrap;html=1;" vertex="1" parent="WIyWlLk6GJQsqaUBKTNV-1">
          <mxGeometry x="2770" y="560" width="710" height="360" as="geometry" />
        </mxCell>
        <mxCell id="A2L044aXmqwqJp9lYkbu-73" value="Date of Birth" style="shape=parallelogram;perimeter=parallelogramPerimeter;whiteSpace=wrap;html=1;fixedSize=1;" vertex="1" parent="A2L044aXmqwqJp9lYkbu-70">
          <mxGeometry x="525" y="150" width="120" height="60" as="geometry" />
        </mxCell>
        <mxCell id="A2L044aXmqwqJp9lYkbu-78" style="edgeStyle=orthogonalEdgeStyle;rounded=0;orthogonalLoop=1;jettySize=auto;html=1;entryX=0.5;entryY=0;entryDx=0;entryDy=0;" edge="1" parent="A2L044aXmqwqJp9lYkbu-70" source="A2L044aXmqwqJp9lYkbu-79" target="A2L044aXmqwqJp9lYkbu-73">
          <mxGeometry relative="1" as="geometry" />
        </mxCell>
        <mxCell id="A2L044aXmqwqJp9lYkbu-88" style="edgeStyle=orthogonalEdgeStyle;rounded=0;orthogonalLoop=1;jettySize=auto;html=1;" edge="1" parent="A2L044aXmqwqJp9lYkbu-70" source="A2L044aXmqwqJp9lYkbu-79">
          <mxGeometry relative="1" as="geometry">
            <mxPoint x="670" y="280" as="targetPoint" />
          </mxGeometry>
        </mxCell>
        <mxCell id="A2L044aXmqwqJp9lYkbu-79" value="Layout components" style="rounded=0;whiteSpace=wrap;html=1;" vertex="1" parent="A2L044aXmqwqJp9lYkbu-70">
          <mxGeometry x="300" y="10" width="120" height="60" as="geometry" />
        </mxCell>
        <mxCell id="A2L044aXmqwqJp9lYkbu-80" value="Firstname" style="shape=parallelogram;perimeter=parallelogramPerimeter;whiteSpace=wrap;html=1;fixedSize=1;" vertex="1" parent="A2L044aXmqwqJp9lYkbu-70">
          <mxGeometry x="55" y="150" width="120" height="60" as="geometry" />
        </mxCell>
        <mxCell id="A2L044aXmqwqJp9lYkbu-74" style="edgeStyle=orthogonalEdgeStyle;rounded=0;orthogonalLoop=1;jettySize=auto;html=1;entryX=0.583;entryY=0;entryDx=0;entryDy=0;entryPerimeter=0;" edge="1" parent="A2L044aXmqwqJp9lYkbu-70" source="A2L044aXmqwqJp9lYkbu-79" target="A2L044aXmqwqJp9lYkbu-80">
          <mxGeometry relative="1" as="geometry" />
        </mxCell>
        <mxCell id="A2L044aXmqwqJp9lYkbu-81" value="Lastname" style="shape=parallelogram;perimeter=parallelogramPerimeter;whiteSpace=wrap;html=1;fixedSize=1;" vertex="1" parent="A2L044aXmqwqJp9lYkbu-70">
          <mxGeometry x="150" y="270" width="120" height="60" as="geometry" />
        </mxCell>
        <mxCell id="A2L044aXmqwqJp9lYkbu-77" style="edgeStyle=orthogonalEdgeStyle;rounded=0;orthogonalLoop=1;jettySize=auto;html=1;" edge="1" parent="A2L044aXmqwqJp9lYkbu-70" source="A2L044aXmqwqJp9lYkbu-79" target="A2L044aXmqwqJp9lYkbu-81">
          <mxGeometry relative="1" as="geometry" />
        </mxCell>
        <mxCell id="A2L044aXmqwqJp9lYkbu-82" value="Mobile Number" style="shape=parallelogram;perimeter=parallelogramPerimeter;whiteSpace=wrap;html=1;fixedSize=1;" vertex="1" parent="A2L044aXmqwqJp9lYkbu-70">
          <mxGeometry x="300" y="150" width="120" height="60" as="geometry" />
        </mxCell>
        <mxCell id="A2L044aXmqwqJp9lYkbu-75" style="edgeStyle=orthogonalEdgeStyle;rounded=0;orthogonalLoop=1;jettySize=auto;html=1;entryX=0.5;entryY=0;entryDx=0;entryDy=0;" edge="1" parent="A2L044aXmqwqJp9lYkbu-70" source="A2L044aXmqwqJp9lYkbu-79" target="A2L044aXmqwqJp9lYkbu-82">
          <mxGeometry relative="1" as="geometry" />
        </mxCell>
        <mxCell id="A2L044aXmqwqJp9lYkbu-83" value="Email Address" style="shape=parallelogram;perimeter=parallelogramPerimeter;whiteSpace=wrap;html=1;fixedSize=1;" vertex="1" parent="A2L044aXmqwqJp9lYkbu-70">
          <mxGeometry x="425" y="270" width="120" height="60" as="geometry" />
        </mxCell>
        <mxCell id="A2L044aXmqwqJp9lYkbu-76" style="edgeStyle=orthogonalEdgeStyle;rounded=0;orthogonalLoop=1;jettySize=auto;html=1;entryX=0.557;entryY=-0.048;entryDx=0;entryDy=0;entryPerimeter=0;" edge="1" parent="A2L044aXmqwqJp9lYkbu-70" source="A2L044aXmqwqJp9lYkbu-79" target="A2L044aXmqwqJp9lYkbu-83">
          <mxGeometry relative="1" as="geometry" />
        </mxCell>
        <mxCell id="A2L044aXmqwqJp9lYkbu-89" value="Save" style="shape=parallelogram;perimeter=parallelogramPerimeter;whiteSpace=wrap;html=1;fixedSize=1;" vertex="1" parent="A2L044aXmqwqJp9lYkbu-70">
          <mxGeometry x="580" y="280" width="120" height="60" as="geometry" />
        </mxCell>
        <mxCell id="A2L044aXmqwqJp9lYkbu-85" style="edgeStyle=orthogonalEdgeStyle;rounded=0;orthogonalLoop=1;jettySize=auto;html=1;entryX=0.5;entryY=0;entryDx=0;entryDy=0;" edge="1" parent="WIyWlLk6GJQsqaUBKTNV-1" source="A2L044aXmqwqJp9lYkbu-84" target="A2L044aXmqwqJp9lYkbu-55">
          <mxGeometry relative="1" as="geometry" />
        </mxCell>
      </root>
    </mxGraphModel>
  </diagram>
</mxfile>
